<svg width="72" height="72" viewBox="0 0 72 72" fill="none" xmlns="http://www.w3.org/2000/svg">
<path fill-rule="evenodd" clip-rule="evenodd" d="M33.3811 33.5502C23.2794 33.333 15.4828 31.8123 15.4828 29.9658C15.4828 29.5433 15.9053 29.133 16.6656 28.7468C16.6656 28.7468 19.357 27.6485 21.2156 27.6485L21.4208 27.6365C21.2639 25.283 21.3122 22.8209 21.5173 20.383C22.338 10.4864 25.6811 1.00024 27.5518 1.00024C29.3863 1.00024 32.6328 10.1002 33.538 20.3106C33.7432 22.7123 33.8277 25.1744 33.7432 27.5882C33.707 28.3847 33.6587 29.1813 33.5863 29.9658L33.3811 33.333V33.5502ZM56.5172 29.9655C56.5172 31.8121 48.7689 33.3207 38.7155 33.55V33.2845L38.4138 29.9655C38.3413 29.181 38.2931 28.3845 38.2569 27.5879C38.1724 25.1741 38.2569 22.7121 38.462 20.3103C39.3672 10.1 42.6138 1 44.4482 1C46.3189 1 49.662 10.4862 50.4827 20.3828C50.6879 22.8207 50.7362 25.2828 50.5793 27.6362L50.8327 27.6483C53.3431 27.6483 55.25 28.7103 55.25 28.7103C56.0707 29.0966 56.5172 29.519 56.5172 29.9655Z" fill="white"/>
<path fill-rule="evenodd" clip-rule="evenodd" d="M33.5862 20.3104H38.4138H38.4621C38.2569 22.7121 38.1724 25.1742 38.2569 27.588L37.9552 27.6H34.0448L33.7431 27.588C33.8276 25.1742 33.7431 22.7121 33.5379 20.3104H33.5862ZM56.5172 46.9346V66.1726C56.5172 66.1726 51.1586 71.0001 36 71.0001C21.0103 71.0001 15.4828 66.1726 15.4828 66.1726V46.8622C15.4828 46.8622 21.5172 51.6898 36 51.6898C43.2414 51.6898 50.6276 50.3381 56.5172 46.9346ZM21.5172 20.3829C21.3121 22.8208 21.2638 25.2829 21.4207 27.6363L21.2155 27.6484C19.3569 27.6484 16.6655 28.7467 16.6655 28.7467C15.9052 29.1329 15.4828 29.5432 15.4828 29.9657C15.4828 31.8122 23.2793 33.3329 33.381 33.5501C34.2379 33.5743 35.1069 33.5863 36 33.5863C36.9172 33.5863 37.8224 33.5743 38.7155 33.5501C48.769 33.3208 56.5172 31.8122 56.5172 29.9657C56.5172 29.5191 56.0707 29.0967 55.25 28.7105C55.25 28.7105 53.3431 27.6484 50.8328 27.6484L50.5793 27.6363C50.7362 25.2829 50.6879 22.8208 50.4828 20.3829L50.7362 20.3588C52.8 20.3588 55.3103 20.9019 55.3103 20.9019C64.7603 22.845 71 26.1881 71 29.9657C71 33.6105 65.219 36.8329 56.3362 38.8001C50.6034 40.0794 43.5793 40.8277 36 40.8277C28.4207 40.8277 21.3966 40.0794 15.6638 38.8001C6.78103 36.8329 1 33.6105 1 29.9657C1 26.1881 7.23966 22.845 16.6897 20.9019C16.6897 20.9019 18.5966 20.3588 21.2155 20.3588L21.5172 20.3829Z" fill="#081C21"/>
<path fill-rule="evenodd" clip-rule="evenodd" d="M38.4138 29.9652L38.7155 33.2842V33.5497C37.8224 33.5739 36.9172 33.5859 36 33.5859C35.1069 33.5859 34.2379 33.5739 33.381 33.5497V33.3325L33.5862 29.9652C33.6586 29.1807 33.7069 28.3842 33.7431 27.5876L34.0448 27.5997H37.9552L38.2569 27.5876C38.2931 28.3842 38.3414 29.1807 38.4138 29.9652Z" fill="#ABBF7E"/>
<path fill-rule="evenodd" clip-rule="evenodd" d="M56.5173 39.6205V46.9343C50.6276 50.3377 43.2414 51.6895 36 51.6895C21.5173 51.6895 15.4828 46.8619 15.4828 46.8619V39.6205L15.6638 38.7998C21.3966 40.0791 28.4207 40.8274 36 40.8274C43.5793 40.8274 50.6035 40.0791 56.3362 38.7998L56.5173 39.6205Z" fill="#ABBF7E"/>
<path d="M15.4828 46.8621C15.4828 46.8621 21.5172 51.6897 36 51.6897C43.2414 51.6897 48.3707 50.4828 51.6897 49.2759M13.069 9.44828V11.8621M11.8621 10.6552H14.2759M61.3448 1V3.41379M60.1379 2.2069H62.5517M3.41379 1V5.82759M1 3.41379H5.82759M16.6884 20.9053C7.23362 22.8497 1 26.1819 1 29.9655C1 35.9638 16.6703 40.8276 36 40.8276C55.3297 40.8276 71 35.9638 71 29.9655C71 26.1819 64.7652 22.8497 55.3116 20.9053M44.4483 13.069V29.3621M50.4828 28.7586C51.6897 16.6897 46.8621 1 44.4483 1C42.0345 1 37.2069 16.6897 38.4138 29.9655M27.5517 13.069V29.3621M33.5862 29.9655C34.7931 16.6897 29.9655 1 27.5517 1C25.1379 1 20.3103 16.6897 21.5172 28.7586M16.6667 28.7502C15.9003 29.1291 15.4828 29.5383 15.4828 29.9655C15.4828 31.9653 24.6684 33.5862 36 33.5862C47.3316 33.5862 56.5172 31.9653 56.5172 29.9655C56.5172 29.5238 56.0695 29.1014 55.2512 28.7103M56.5172 43.2414V66.1724C56.5172 66.1724 51.1574 71 36 71C21.0128 71 15.4828 66.1724 15.4828 66.1724V43.2414" stroke="#081C21" stroke-width="1.7137" stroke-linecap="round" stroke-linejoin="round"/>
</svg>
